<svg width="140" height="140" viewBox="0 0 140 140" fill="none" xmlns="http://www.w3.org/2000/svg">
<g clip-path="url(#clip0_322_513)">
<mask id="mask0_322_513" style="mask-type:luminance" maskUnits="userSpaceOnUse" x="-1" y="0" width="141" height="140">
<path d="M-0.000106812 1.52588e-05H140V140H-0.000106812V1.52588e-05Z" fill="white"/>
</mask>
<g mask="url(#mask0_322_513)">
<path d="M67.5964 50.0995C73.9479 51.9458 79.3904 55.6388 83.3136 60.2468C83.3164 60.2468 83.3191 60.2495 83.3191 60.2523C84.0415 61.095 84.747 62.0047 85.3453 62.8663V62.8691C85.9148 63.676 86.634 64.8321 86.9996 65.5022C87.0023 65.505 87.005 65.508 87.005 65.5105C88.2084 67.6435 89.2158 70.0197 89.939 72.5296C89.9418 72.5296 89.939 72.5323 89.939 72.5323C93.153 83.7498 90.2579 96.1475 81.6019 104.804L58.748 127.655C45.9347 140.471 25.159 140.471 12.3457 127.655C-0.470619 114.838 -0.468159 94.0661 12.3457 81.2525L35.1968 58.3986C39.4242 54.1737 44.5129 51.3409 49.8996 49.9026C49.1586 52.6808 48.7867 55.5409 48.7867 58.3986C48.7867 61.4554 49.2105 64.5097 50.0609 67.471C48.8961 68.1573 47.7968 68.9995 46.7988 70.0003L23.9449 92.8517C17.5492 99.2499 17.5492 109.657 23.9449 116.055C30.3433 122.451 40.7504 122.451 47.1488 116.055L70 93.2015C76.3981 86.803 76.3973 76.3976 70 70.0003C64.6023 64.6026 63.7574 56.3503 67.4707 50.0612C67.5117 50.0722 67.5554 50.0858 67.5964 50.0995Z" fill="#53D35F"/>
<path d="M127.654 12.3462C114.841 -0.469816 94.0651 -0.469816 81.2521 12.3462L58.3981 35.1971C45.61 47.9852 45.5537 68.7583 58.3981 81.6022C62.4751 85.6767 67.3557 88.4575 72.5291 89.9395C76.2424 83.6505 75.3978 75.3981 69.9998 70.0005C63.6017 63.6021 63.6028 53.1967 69.9998 46.7993L93.2614 23.538L93.2694 23.5432C99.6629 17.5656 109.784 17.6739 116.055 23.9454C122.451 30.3436 122.451 40.7509 116.055 47.149L93.201 70.0005C92.2101 70.9914 91.1357 71.821 89.9389 72.5322C90.7865 75.4911 91.2131 78.5479 91.2131 81.6022C91.2131 84.4596 90.8412 87.3197 90.1002 90.0981C95.4869 88.6599 100.576 85.8268 104.803 81.6022L127.654 58.7483C140.471 45.932 140.468 25.1598 127.654 12.3462Z" fill="#41BF4D"/>
<path d="M67.4693 50.0607C72.6438 51.5438 77.525 54.3233 81.6011 58.3989C94.4149 71.213 94.4149 91.9887 81.6011 104.803L58.7486 127.655C45.9347 140.469 25.1589 140.469 12.3448 127.655C-0.469258 114.841 -0.469258 94.0652 12.3448 81.2511L35.1971 58.3989C39.4231 54.1729 44.5153 51.3406 49.902 49.9021" stroke="#31AA3D" stroke-width="5.46875" stroke-miterlimit="10" stroke-linecap="round" stroke-linejoin="round"/>
<path d="M89.9393 72.5308C91.1044 71.8433 92.202 70.9998 93.202 70.0001L116.054 47.1481C122.451 40.7508 122.451 30.3432 116.054 23.9458C110.306 18.1985 101.321 17.6149 94.9164 22.1953" stroke="#31AA3D" stroke-width="5.46875" stroke-miterlimit="10" stroke-linecap="round" stroke-linejoin="round"/>
<path d="M79.3176 37.4801L70 46.7978C63.6026 53.1949 63.6026 63.6024 70 69.9998C76.397 76.3968 76.397 86.8047 70 93.2015L47.148 116.054C40.7506 122.451 30.3431 122.451 23.9457 116.054C17.5489 109.657 17.5489 99.2488 23.9457 92.8518L46.798 69.9998C47.7979 68.9998 48.8955 68.1565 50.0606 67.4691" stroke="#31AA3D" stroke-width="5.46875" stroke-miterlimit="10" stroke-linecap="round" stroke-linejoin="round"/>
<path d="M72.5306 89.9396C67.3561 88.4564 62.4749 85.6769 58.3988 81.6013C45.585 68.7872 45.585 48.0115 58.3988 35.1974L81.2513 12.3454C94.0652 -0.469003 114.841 -0.469003 127.655 12.3454C140.469 25.1592 140.469 45.935 127.655 58.7491L104.803 81.6013C100.577 85.8273 95.4846 88.6596 90.0979 90.0981" stroke="#31AA3D" stroke-width="5.46875" stroke-miterlimit="10" stroke-linecap="round" stroke-linejoin="round"/>
<path d="M88.9853 31.6798C87.9176 32.7473 86.1862 32.7473 85.1181 31.6798C84.0503 30.6121 84.0503 28.8807 85.1181 27.8126C86.1862 26.7448 87.9176 26.7448 88.9853 27.8126C90.0531 28.8807 90.0531 30.6121 88.9853 31.6798Z" fill="#31AA3D"/>
<path d="M23.5959 23.5961L35.1971 35.1973" stroke="#53D35F" stroke-width="5.46875" stroke-miterlimit="10" stroke-linecap="round" stroke-linejoin="round"/>
<path d="M10.3905 48.6719H26.7968" stroke="#53D35F" stroke-width="5.46875" stroke-miterlimit="10" stroke-linecap="round" stroke-linejoin="round"/>
<path d="M48.6718 9.57031V25.9766" stroke="#53D35F" stroke-width="5.46875" stroke-miterlimit="10" stroke-linecap="round" stroke-linejoin="round"/>
<path d="M104.803 104.803L116.404 116.404" stroke="#53D35F" stroke-width="5.46875" stroke-miterlimit="10" stroke-linecap="round" stroke-linejoin="round"/>
<path d="M91.0549 114.023V130.43" stroke="#53D35F" stroke-width="5.46875" stroke-miterlimit="10" stroke-linecap="round" stroke-linejoin="round"/>
<path d="M114.024 91.0547H130.43" stroke="#53D35F" stroke-width="5.46875" stroke-miterlimit="10" stroke-linecap="round" stroke-linejoin="round"/>
</g>
</g>
<defs>
<clipPath id="clip0_322_513">
<rect width="140" height="140" fill="white"/>
</clipPath>
</defs>
</svg>
