<svg width="666" height="159" viewBox="0 0 666 159" fill="none" xmlns="http://www.w3.org/2000/svg">
<g clip-path="url(#clip0_322_512)">
<mask id="mask0_322_512" style="mask-type:luminance" maskUnits="userSpaceOnUse" x="-1" y="15" width="141" height="140">
<path d="M-0.000106812 15H140V155H-0.000106812V15Z" fill="white"/>
</mask>
<g mask="url(#mask0_322_512)">
<path d="M67.5965 65.0995C73.9479 66.9458 79.3904 70.6388 83.3136 75.2468C83.3164 75.2468 83.3191 75.2495 83.3191 75.2523C84.0415 76.095 84.747 77.0047 85.3453 77.8663V77.8691C85.9149 78.676 86.634 79.8321 86.9996 80.5022C87.0023 80.505 87.0051 80.508 87.0051 80.5105C88.2085 82.6435 89.2158 85.0197 89.939 87.5296C89.9418 87.5296 89.939 87.5323 89.939 87.5323C93.153 98.7498 90.2579 111.147 81.6019 119.804L58.748 142.655C45.9347 155.471 25.159 155.471 12.3457 142.655C-0.470612 129.838 -0.468151 109.066 12.3457 96.2525L35.1968 73.3986C39.4242 69.1737 44.5129 66.3409 49.8996 64.9026C49.1586 67.6808 48.7867 70.5409 48.7867 73.3986C48.7867 76.4554 49.2105 79.5097 50.0609 82.471C48.8961 83.1573 47.7968 83.9995 46.7988 85.0003L23.9449 107.852C17.5492 114.25 17.5492 124.657 23.9449 131.055C30.3433 137.451 40.7504 137.451 47.1488 131.055L70 108.201C76.3981 101.803 76.3973 91.3976 70 85.0003C64.6023 79.6026 63.7574 71.3503 67.4707 65.0612C67.5117 65.0722 67.5554 65.0858 67.5965 65.0995Z" fill="#53D35F"/>
<path d="M127.654 27.3462C114.841 14.5302 94.0651 14.5302 81.2521 27.3462L58.3981 50.1971C45.61 62.9852 45.5537 83.7583 58.3981 96.6022C62.4751 100.677 67.3557 103.458 72.5291 104.94C76.2424 98.6505 75.3978 90.3981 69.9998 85.0005C63.6017 78.6021 63.6028 68.1967 69.9998 61.7993L93.2614 38.538L93.2694 38.5432C99.6629 32.5656 109.784 32.6739 116.055 38.9454C122.451 45.3436 122.451 55.7509 116.055 62.149L93.201 85.0005C92.2101 85.9914 91.1357 86.821 89.9389 87.5322C90.7865 90.4911 91.2131 93.5479 91.2131 96.6022C91.2131 99.4596 90.8412 102.32 90.1002 105.098C95.4869 103.66 100.576 100.827 104.803 96.6022L127.654 73.7483C140.471 60.932 140.468 40.1598 127.654 27.3462Z" fill="#41BF4D"/>
<path d="M67.4693 65.0607C72.6438 66.5438 77.525 69.3233 81.6011 73.3989C94.4149 86.213 94.4149 106.989 81.6011 119.803L58.7486 142.655C45.9347 155.469 25.1589 155.469 12.3448 142.655C-0.469265 129.841 -0.469265 109.065 12.3448 96.2511L35.1971 73.3989C39.4231 69.1729 44.5153 66.3406 49.902 64.9021" stroke="#31AA3D" stroke-width="5.46875" stroke-miterlimit="10" stroke-linecap="round" stroke-linejoin="round"/>
<path d="M89.9393 87.5308C91.1044 86.8433 92.202 85.9998 93.202 85.0001L116.054 62.1481C122.451 55.7508 122.451 45.3432 116.054 38.9458C110.306 33.1985 101.321 32.6149 94.9164 37.1953" stroke="#31AA3D" stroke-width="5.46875" stroke-miterlimit="10" stroke-linecap="round" stroke-linejoin="round"/>
<path d="M79.3176 52.4801L70 61.7978C63.6026 68.1949 63.6026 78.6024 70 84.9998C76.397 91.3968 76.397 101.805 70 108.201L47.148 131.054C40.7506 137.451 30.3431 137.451 23.9457 131.054C17.5489 124.657 17.5489 114.249 23.9457 107.852L46.798 84.9998C47.7979 83.9998 48.8955 83.1565 50.0606 82.4691" stroke="#31AA3D" stroke-width="5.46875" stroke-miterlimit="10" stroke-linecap="round" stroke-linejoin="round"/>
<path d="M72.5306 104.94C67.3561 103.456 62.4749 100.677 58.3988 96.6013C45.585 83.7872 45.585 63.0115 58.3988 50.1974L81.2513 27.3454C94.0652 14.531 114.841 14.531 127.655 27.3454C140.469 40.1592 140.469 60.935 127.655 73.7491L104.803 96.6013C100.577 100.827 95.4846 103.66 90.0979 105.098" stroke="#31AA3D" stroke-width="5.46875" stroke-miterlimit="10" stroke-linecap="round" stroke-linejoin="round"/>
<path d="M88.9853 46.6798C87.9176 47.7473 86.1862 47.7473 85.1181 46.6798C84.0503 45.6121 84.0503 43.8807 85.1181 42.8126C86.1862 41.7448 87.9176 41.7448 88.9853 42.8126C90.0531 43.8807 90.0531 45.6121 88.9853 46.6798Z" fill="#31AA3D"/>
<path d="M23.596 38.5961L35.1971 50.1973" stroke="#53D35F" stroke-width="5.46875" stroke-miterlimit="10" stroke-linecap="round" stroke-linejoin="round"/>
<path d="M10.3905 63.6719H26.7968" stroke="#53D35F" stroke-width="5.46875" stroke-miterlimit="10" stroke-linecap="round" stroke-linejoin="round"/>
<path d="M48.6718 24.5703V40.9766" stroke="#53D35F" stroke-width="5.46875" stroke-miterlimit="10" stroke-linecap="round" stroke-linejoin="round"/>
<path d="M104.803 119.803L116.404 131.404" stroke="#53D35F" stroke-width="5.46875" stroke-miterlimit="10" stroke-linecap="round" stroke-linejoin="round"/>
<path d="M91.0549 129.023V145.43" stroke="#53D35F" stroke-width="5.46875" stroke-miterlimit="10" stroke-linecap="round" stroke-linejoin="round"/>
<path d="M114.024 106.055H130.43" stroke="#53D35F" stroke-width="5.46875" stroke-miterlimit="10" stroke-linecap="round" stroke-linejoin="round"/>
</g>
</g>
<path d="M244.9 158.64C232.727 158.64 222.533 156.953 214.32 153.58C206.107 150.06 199.8 145.367 195.4 139.5C191.147 133.487 188.727 126.593 188.14 118.82L221.58 117.72C222.607 123.293 224.953 127.62 228.62 130.7C232.287 133.78 237.713 135.32 244.9 135.32C250.767 135.32 255.313 134.367 258.54 132.46C261.913 130.553 263.6 127.62 263.6 123.66C263.6 121.167 263.013 119.113 261.84 117.5C260.667 115.74 258.32 114.273 254.8 113.1C251.427 111.78 246.367 110.607 239.62 109.58C227.153 107.38 217.4 104.813 210.36 101.88C203.32 98.9467 198.333 95.1333 195.4 90.44C192.467 85.7467 191 80.0267 191 73.28C191 61.9867 195.327 52.8933 203.98 46C212.78 38.96 225.907 35.44 243.36 35.44C254.507 35.44 263.82 37.2 271.3 40.72C278.927 44.24 284.793 49.08 288.9 55.24C293.153 61.2533 295.793 68.1467 296.82 75.92L263.6 77.24C263.16 73.4267 261.987 70.2 260.08 67.56C258.32 64.7733 256.047 62.6467 253.26 61.18C250.473 59.5667 247.1 58.76 243.14 58.76C237.273 58.76 232.727 60.0067 229.5 62.5C226.42 64.8467 224.88 68 224.88 71.96C224.88 74.8933 225.54 77.3133 226.86 79.22C228.327 80.98 230.673 82.4467 233.9 83.62C237.127 84.7933 241.453 85.7467 246.88 86.48C259.493 88.24 269.467 90.7333 276.8 93.96C284.28 97.04 289.633 100.927 292.86 105.62C296.087 110.313 297.7 116.107 297.7 123C297.7 130.627 295.5 137.08 291.1 142.36C286.7 147.64 280.54 151.673 272.62 154.46C264.847 157.247 255.607 158.64 244.9 158.64ZM363.243 156C351.069 156 342.123 153.213 336.403 147.64C330.683 141.92 327.823 132.9 327.823 120.58V10.36H360.823V116.62C360.823 122.34 361.996 126.227 364.343 128.28C366.836 130.333 370.503 131.36 375.343 131.36H391.843V156H363.243ZM308.903 62.72V38.08H391.843V62.72H308.903ZM443.763 156C431.589 156 422.643 153.213 416.923 147.64C411.203 141.92 408.343 132.9 408.343 120.58V10.36H441.343V116.62C441.343 122.34 442.516 126.227 444.863 128.28C447.356 130.333 451.023 131.36 455.863 131.36H472.363V156H443.763ZM389.423 62.72V38.08H472.363V62.72H389.423ZM493.797 156V38.08H523.497L524.817 72.62L520.637 71.52C521.811 62.72 524.157 55.68 527.677 50.4C531.344 45.12 535.891 41.3067 541.317 38.96C546.744 36.6133 552.684 35.44 559.137 35.44C567.644 35.44 574.831 37.2733 580.697 40.94C586.711 44.6067 591.257 49.8133 594.337 56.56C597.564 63.16 599.177 71.0067 599.177 80.1V156H566.177V91.1C566.177 84.7933 565.664 79.44 564.637 75.04C563.611 70.64 561.777 67.34 559.137 65.14C556.497 62.7933 552.831 61.62 548.137 61.62C541.244 61.62 535.964 64.1867 532.297 69.32C528.631 74.3067 526.797 81.5667 526.797 91.1V156H493.797Z" fill="white"/>
<path d="M621.91 156V122.34H657.77V156H621.91Z" fill="#53D35F"/>
<defs>
<clipPath id="clip0_322_512">
<rect width="140" height="140" fill="white" transform="translate(0 15)"/>
</clipPath>
</defs>
</svg>
